<svg xmlns="http://www.w3.org/2000/svg" width="631.539" height="378.444" viewBox="0 0 631.539 378.444">
  <g id="Group_126" data-name="Group 126" transform="translate(-322.431 -1865.388)">
    <path id="Path_1" data-name="Path 1" d="M283.443,530.458c-38.566-15.913-82.662-29.382-118.695-6.515-4.567,2.9-9.067,6.547-11.527,11.976-6.5,14.284,3.831,32.807-1.2,47.905s-23.984,22.7-22.432,38.827a24.534,24.534,0,0,0,4.573,11.322c14.115,20.591,39.991,22.675,61.862,17.565s43.26-15.705,65.525-14.372c21.4,1.317,41.08,13.573,60.685,23.889,33.05,17.438,71.65,29.949,104.674,12.424,15.131-8.032,27.641-21.709,42.124-31.258,19.517-12.75,41.951-17.666,63.988-14.02,14.71,2.475,28.751,8.7,43.146,13,32.7,9.749,66.823,9.43,100.515,9.046,6.272-.072,12.644-.159,18.655-2.3,8.9-3.194,16.241-10.547,23.308-17.741,9.287-9.445,19.069-19.825,22.065-33.949,3.537-16.767-3.784-34.588-14.643-45.981s-24.739-17.621-38.286-23.625c-3.343-1.469-6.914-2.962-10.337-1.852-2.247.735-4.139,2.523-5.817,4.447-9.615,11.05-17.739,29.741-30.851,26.739-4.68-1.07-8.512-4.958-12.216-8.551-19.778-19.162-46.383-33.957-70.253-23.37-17.458,7.745-29.781,27.633-47.472,34.652-12.584,5-26.257,2.834-39.5,3.808-19.257,1.405-38,9.533-57.281,9.038-49.171-1.262-90.138-57.406-139.108-52.057-3.838.415-8.024,1.469-10.377,5.094" transform="translate(192.935 1561.906)" fill="#2e375b" opacity="0.37"/>
    <g id="Group_123" data-name="Group 123">
      <path id="Path_2" data-name="Path 2" d="M261.518,466.56s-40.86,24.666,34.488,62.657c0,0,16.6-30.824-1.752-55.957a24.739,24.739,0,0,0-32.094-7.034Z" transform="translate(156.852 1590.871)" fill="#a5ce46" opacity="0.3"/>
      <path id="Path_3" data-name="Path 3" d="M267.73,467.52s34.983,26.745,34.006,63.152" transform="translate(151.128 1589.396)" fill="none" stroke="#fff" stroke-miterlimit="10" stroke-width="1" opacity="0.08"/>
    </g>
    <g id="Group_125" data-name="Group 125" transform="translate(0 7.63)">
      <path id="Path_4" data-name="Path 4" d="M979.3,414.133c7.882,28.823-25.742,110.938-25.742,110.938s-70.75-53.565-78.639-82.389a54.119,54.119,0,1,1,104.374-28.556Z" transform="translate(-49.327 1620.692)" fill="#288e99" opacity="0.5"/>
      <path id="Path_6" data-name="Path 6" d="M936.21,378.27s44.04,66.484,40.749,148.847" transform="translate(-72.417 1618.806)" fill="none" stroke="#fff" stroke-miterlimit="10" stroke-width="1" opacity="0.15"/>
    </g>
    <g id="Group_124" data-name="Group 124" transform="translate(-6 -1)">
      <path id="Path_7" data-name="Path 7" d="M1039.417,518.9s-41.936-22.814-36.628,61.4c0,0,34.983-1.25,47.4-29.787a24.739,24.739,0,0,0-10.156-31.258Z" transform="translate(-92.297 1573.303)" fill="#a5ce46" opacity="0.3"/>
      <path id="Path_8" data-name="Path 8" d="M1040.336,520.52s-5.416,43.715-37.316,61.253" transform="translate(-92.527 1571.834)" fill="none" stroke="#fff" stroke-miterlimit="10" stroke-width="1" opacity="0.16"/>
    </g>
    <g id="Group_122" data-name="Group 122" transform="translate(35 -68.371)">
      <path id="Path_9" data-name="Path 9" d="M141,506.716s-66.445,40.08,56.034,101.8c0,0,26.984-50.1-2.847-90.951a40.21,40.21,0,0,0-52.165-11.433Z" transform="translate(199.087 1578.302)" fill="#288e99" opacity="0.5"/>
      <path id="Path_10" data-name="Path 10" d="M140.26,505.49s56.859,43.471,55.273,102.645" transform="translate(200.584 1578.692)" fill="none" stroke="#fff" stroke-miterlimit="10" stroke-width="1" opacity="0.09"/>
    </g>
    <rect id="Rectangle_1" data-name="Rectangle 1" width="353.115" height="219.303" rx="23.26" transform="translate(443.069 1901.293)" fill="#2e375b"/>
    <rect id="Rectangle_2" data-name="Rectangle 2" width="337.503" height="179.159" transform="translate(451.246 1933.26)" fill="#131733"/>
    <ellipse id="Ellipse_1" data-name="Ellipse 1" cx="2.975" cy="2.975" rx="2.975" ry="2.975" transform="translate(617.019 1914.673)" fill="#161c38"/>
    <path id="Path_12" data-name="Path 12" d="M406.836,551.08l11.594,11.895h81.746l10.477-11.895H677.135a3.718,3.718,0,0,1,3.717,3.718v3a20.794,20.794,0,0,1-20.794,20.794H258.574a20.794,20.794,0,0,1-20.794-20.794v-3a3.718,3.718,0,0,1,3.718-3.718Z" transform="translate(161.053 1561.707)" fill="#2e375b"/>
    <path id="Path_13" data-name="Path 13" d="M258.77,124.19V276.583H510.776" transform="translate(234.854 1820.223)" fill="none" stroke="#a5ce46" stroke-miterlimit="10" stroke-width="2" opacity="0.5"/>
    <rect id="Rectangle_3" data-name="Rectangle 3" width="26.016" height="40.144" rx="13.008" transform="translate(515.923 2050.718)" fill="#288e99" opacity="0.72"/>
    <rect id="Rectangle_4" data-name="Rectangle 4" width="26.016" height="75.829" rx="13.008" transform="translate(560.527 2015.034)" fill="#288e99" opacity="0.72"/>
    <rect id="Rectangle_5" data-name="Rectangle 5" width="26.016" height="54.266" rx="13.008" transform="translate(605.131 2036.59)" fill="#288e99" opacity="0.72"/>
    <rect id="Rectangle_6" data-name="Rectangle 6" width="26.016" height="87.724" rx="13.008" transform="translate(649.735 2003.139)" fill="#288e99" opacity="0.72"/>
    <rect id="Rectangle_7" data-name="Rectangle 7" width="26.016" height="118.942" rx="13.008" transform="translate(694.339 1971.914)" fill="#288e99" opacity="0.72"/>
    <g id="Group_8" data-name="Group 8" transform="translate(527.075 1953.333)">
      <path id="Path_14" data-name="Path 14" d="M311.02,212.962l45.346-40.887,44.6,38.653L444.832,163.9l44.6-18.588" transform="translate(-305.818 -140.108)" fill="none" stroke="#a5ce46" stroke-miterlimit="10" stroke-width="2" opacity="0.5"/>
      <ellipse id="Ellipse_2" data-name="Ellipse 2" cx="5.202" cy="5.202" rx="5.202" ry="5.202" transform="translate(0 67.652)" fill="#288e99" opacity="0.78"/>
      <ellipse id="Ellipse_3" data-name="Ellipse 3" cx="5.202" cy="5.202" rx="5.202" ry="5.202" transform="translate(89.208 64.676)" fill="#288e99" opacity="0.78"/>
      <ellipse id="Ellipse_4" data-name="Ellipse 4" cx="5.202" cy="5.202" rx="5.202" ry="5.202" transform="translate(134.555 18.588)" fill="#288e99" opacity="0.78"/>
      <ellipse id="Ellipse_5" data-name="Ellipse 5" cx="5.202" cy="5.202" rx="5.202" ry="5.202" transform="translate(45.346 26.016)" fill="#288e99" opacity="0.78"/>
      <ellipse id="Ellipse_6" data-name="Ellipse 6" cx="5.202" cy="5.202" rx="5.202" ry="5.202" transform="translate(178.416)" fill="#288e99" opacity="0.78"/>
    </g>
    <g id="Man" transform="translate(749.693 1861.417)">
      <path id="Path_16" data-name="Path 16" d="M817.783,289.106s-8.919-1.538-22.145-13.533c-10.464-9.488-24.579-7.622-30.021-6.425a.929.929,0,0,0-.247,1.725c2.2,1.2,5.61,2.962,7.208,3.163,0,0-3.3,3.41.207,5.235a2.521,2.521,0,0,0,2.634-.254c1.685-1.23,6.365,1.565,13.152,3.016,0,0,26.451,27.374,32.6,22.733Z" transform="translate(-763.309 -205.955)" fill="#fec3be"/>
      <path id="Path_17" data-name="Path 17" d="M912.11,237.275s2.461,10.457,0,17.839l11.072,1.538,9.842-4.921v-6.459a44.353,44.353,0,0,1-3.383-21.222Z" transform="translate(-812.095 -191.341)" fill="#fec3be"/>
      <path id="Path_18" data-name="Path 18" d="M959,573.709s8.024,15.686,6.766,26.143,10.457,1.23,9.227-4.921c-1-4.975,3.443-26.077,5.175-33.926a3.5,3.5,0,0,0-2.327-4.085c-3.7-1.217-9.889-2.708-13-.428C960.25,559.868,959,573.709,959,573.709Z" transform="translate(-827.633 -301.109)" fill="#2e375b"/>
      <path id="Path_19" data-name="Path 19" d="M905.543,608.133s-10.457,13.533-13.225,13.841-4.614,4.613,0,5.536a51.711,51.711,0,0,0,27.414-2.674,4.186,4.186,0,0,0,2.628-4.453l-1.765-13.172Z" transform="translate(-804.606 -318.31)" fill="#2e375b"/>
      <path id="Path_20" data-name="Path 20" d="M882.7,393.78l-10.029,1.337a146.782,146.782,0,0,1-.12,35.257V472.5s-.194,3.711,7.509,9.107a288,288,0,0,1,23.322,18.053l27.908,24.178s11.073-13.533,9.535-21.53c0,0-18.454-5.844-20.915-15.378-1.411-5.456-8.565-10.029-14.422-12.9a17.933,17.933,0,0,1-9.595-20.353,15.691,15.691,0,0,1,1.571-3.952c4.921-8.612,12-27.989,12-27.989l-13.533-25.8Z" transform="translate(-798.986 -247.585)" fill="#131733"/>
      <path id="Path_22" data-name="Path 22" d="M904.945,538.408s18.147,3.076,18.762,4.921,0-2.461,0-2.461,10.457-31.679,8.023-59.661,3.076-46.443,3.076-46.443,6.459-20.915,2.768-32.91-42.444-6.767-42.444-6.767,13.533,31.68,13.225,46.75c0,0,1.538,45.52,4.306,50.749C912.635,492.56,908.329,537.158,904.945,538.408Z" transform="translate(-806.469 -247.642)" fill="#171d3a"/>
      <path id="Path_23" data-name="Path 23" d="M899.446,255.79s1.845,11.367,20.3,6.459l-12.276,93.494s-35.678,1.23-35.37-3.076l7.355-56.586Z" transform="translate(-798.836 -201.859)" fill="#fff" opacity="0.15"/>
      <path id="Path_24" data-name="Path 24" d="M890.322,254.87a14.991,14.991,0,0,1-8.886,4.219,21.615,21.615,0,0,0-8.732,2.594c-3.163,1.772-6.686,4.346-7.756,7.482-2.153,6.151-15.686,16.3-21.837,14.148l2.153,18.454s17.531-.923,20.607-7.689l-5.222,65.853h4.614s2.46-17.839,4.306-21.53,5.536-23.99,5.844-28.911,4.921-33.217,8.92-38.112l6.018-14.609Z" transform="translate(-789.231 -201.554)" opacity="0.1"/>
      <path id="Path_25" data-name="Path 25" d="M890.02,256.25a19.035,19.035,0,0,1-9.5,3.911,21.619,21.619,0,0,0-8.726,2.608c-3.163,1.772-6.686,4.346-7.756,7.482-2.153,6.151-15.686,16.3-21.837,14.148l2.153,18.454s17.531-.923,20.607-7.689l-5.229,65.813h4.613s2.461-17.839,4.306-21.53,5.536-23.99,5.844-28.911,4.921-33.217,8.92-38.112l6.606-14.335Z" transform="translate(-788.929 -202.011)" opacity="0.1"/>
      <path id="Path_26" data-name="Path 26" d="M890.017,255.33a19.037,19.037,0,0,1-9.5,3.912,21.616,21.616,0,0,0-8.732,2.594c-3.163,1.772-6.686,4.346-7.756,7.482-2.153,6.151-15.686,16.3-21.837,14.148l2.153,18.454s17.531-.923,20.607-7.689l-5.222,65.853h4.613s2.461-17.839,4.306-21.53,5.536-23.99,5.844-28.911,4.921-33.217,8.919-38.112l6.613-14.3Z" transform="translate(-788.926 -201.706)" fill="#288e99"/>
      <path id="Path_27" data-name="Path 27" d="M928.872,233.581c-.4-2.915.4-4.734.769-8.151L912.11,238.655s.421,1.785.742,4.4a16.713,16.713,0,0,0,2.674.214C921.611,243.269,925.991,238.515,928.872,233.581Z" transform="translate(-812.095 -191.798)" opacity="0.1"/>
      <ellipse id="Ellipse_7" data-name="Ellipse 7" cx="16.609" cy="16.609" rx="16.609" ry="16.609" transform="translate(86.789 17.337)" fill="#fec3be"/>
      <path id="Path_28" data-name="Path 28" d="M890.052,194.916a21.021,21.021,0,0,1,1.337-8.217,2.053,2.053,0,0,0,.348,2.674,13.159,13.159,0,0,1,4.172-7.395,2.261,2.261,0,0,0-1.5,2.822,6.421,6.421,0,0,0,2.053,2.888A5.16,5.16,0,0,1,899,183.322a15.207,15.207,0,0,1,4.948-1.792,2.868,2.868,0,0,0-1.9,2.942.822.822,0,0,0,.247.568.943.943,0,0,0,.562.147,43.037,43.037,0,0,0,5.2-.114,54.483,54.483,0,0,1,6.4-.341c6.686.281,13.406,4.848,14.9,11.367a26.131,26.131,0,0,1,.488,4.8l.328,8.231a30.1,30.1,0,0,1-.294,7.194,15.245,15.245,0,0,1-7.83,10.35c-2.414-3.5-2.628-7.99-3.464-12.156a6.148,6.148,0,0,0-1.043-2.674,2.346,2.346,0,0,0-2.574-.869,1.478,1.478,0,0,0-.542,2.354c-.669.789-1.919.2-2.675-.5a14.362,14.362,0,0,1-4.165-7.442c-.3-1.431-.6-3.2-2.006-3.684a3.732,3.732,0,0,0-1.484-.1c-2.928.2-7.508,1.411-10.344.481C891.149,201.234,890.052,197.383,890.052,194.916Z" transform="translate(-804.781 -177.251)" opacity="0.1"/>
      <path id="Path_29" data-name="Path 29" d="M890.513,194.456a21.021,21.021,0,0,1,1.337-8.217,2.053,2.053,0,0,0,.348,2.674,13.159,13.159,0,0,1,4.172-7.395,2.261,2.261,0,0,0-1.5,2.822,6.417,6.417,0,0,0,2.053,2.888,5.159,5.159,0,0,1,2.534-4.366,15.205,15.205,0,0,1,4.948-1.792,2.868,2.868,0,0,0-1.9,2.942.822.822,0,0,0,.247.568.942.942,0,0,0,.562.147,43.054,43.054,0,0,0,5.2-.114,54.487,54.487,0,0,1,6.4-.341c6.686.281,13.406,4.848,14.9,11.367a26.131,26.131,0,0,1,.488,4.8l.328,8.231a30.09,30.09,0,0,1-.294,7.194,15.245,15.245,0,0,1-7.83,10.35c-2.414-3.5-2.628-7.99-3.464-12.156A6.15,6.15,0,0,0,918,211.386a2.347,2.347,0,0,0-2.574-.869,1.478,1.478,0,0,0-.542,2.354c-.669.789-1.919.2-2.675-.5a14.362,14.362,0,0,1-4.166-7.442c-.3-1.431-.6-3.2-2.006-3.684a3.731,3.731,0,0,0-1.484-.1c-2.928.2-7.509,1.411-10.344.481C891.609,200.768,890.513,196.923,890.513,194.456Z" transform="translate(-804.934 -177.098)" fill="#2e375b"/>
      <path id="Path_30" data-name="Path 30" d="M840.675,297.42s-2.46,11.367,2.153,18.454l2.614-.214-1.424-18.053Z" transform="translate(-788.207 -215.654)" opacity="0.1"/>
      <path id="Path_31" data-name="Path 31" d="M841.675,297.42s-2.461,11.367,2.153,18.454l2.614-.214-1.424-18.053Z" transform="translate(-788.538 -215.654)" fill="#a5ce46"/>
      <path id="Path_32" data-name="Path 32" d="M930.263,251,950.1,268.07s11.688,12,6.767,31.372c0,0-2.153,28.3-4.613,29.527,0,0-8.612,17.224-9.227,33.525,0,0-11.534-23.221-16.762-9.073s-17.384,16.147-17.384,16.147l6.766-83.685S932.723,256.2,930.263,251Z" transform="translate(-811.025 -200.271)" opacity="0.1"/>
      <path id="Path_33" data-name="Path 33" d="M931.183,251l19.838,17.07s11.688,12,6.766,31.372c0,0-2.153,28.3-4.614,29.527,0,0-8.612,17.224-9.227,33.525,0,0-12.149-24.452-17.384-10.3S909.8,369.574,909.8,369.574l6.766-83.652S933.643,256.2,931.183,251Z" transform="translate(-811.33 -200.271)" fill="#288e99"/>
      <path id="Path_34" data-name="Path 34" d="M948.719,358.53s4.921-3.383,12.918,5.844l-19.684,35.678-6.613-9.983S949.334,362.528,948.719,358.53Z" transform="translate(-819.793 -235.703)" fill="#fec3be"/>
      <path id="Path_35" data-name="Path 35" d="M948.22,359.229s10.885,12.223,15.131,10.263l3.932-9.154L952.526,354Z" transform="translate(-824.061 -234.403)" opacity="0.1"/>
      <path id="Path_36" data-name="Path 36" d="M948.22,358.309s10.885,12.222,15.131,10.263l3.932-9.154-14.757-6.339Z" transform="translate(-824.061 -234.098)" fill="#a5ce46"/>
      <path id="Path_37" data-name="Path 37" d="M935.392,402.51s5.182,10.618,7.943,11.233l-4.012,4.613-5.844-11.072Z" transform="translate(-819.177 -250.478)" opacity="0.1"/>
      <path id="Path_38" data-name="Path 38" d="M934.926,403s5.182,10.618,7.943,11.233l-4.012,4.614L933,407.754Z" transform="translate(-819.018 -250.64)" fill="#a5ce46"/>
      <path id="Path_39" data-name="Path 39" d="M949.605,304.78s.615,22.145-1.845,30.449" transform="translate(-823.909 -218.093)" opacity="0.1"/>
      <path id="Path_40" data-name="Path 40" d="M876,309.086s3.691-1.23,3.691-4.306" transform="translate(-800.129 -218.093)" opacity="0.1"/>
    </g>
  </g>
</svg>
