<svg class="svg" xmlns="http://www.w3.org/2000/svg" width="319.53" height="287.922" viewBox="0 0 419.53 387.922">
              <g id="Group_9" data-name="Group 9" transform="matrix(1, 0.017, -0.017, 1, 6.756, -1.699)" opacity="0.85">
                <g id="Group_8" data-name="Group 8" transform="translate(0 244.861)">
                  <path id="Path_206" data-name="Path 206" d="M892.981,629.419c-29.071,10.131-48.672,13.229-102.505,47.723-.118.072-.236.146-.354.232.088-.12.168-.232.25-.344,38.033-51.393,42.442-70.74,54.5-99.064,12.118-28.45,45.8-42.818,45.8-42.818l25.937,23.861.1.112L938.779,586.6S922.18,619.241,892.981,629.419Z" transform="translate(-790.122 -535.148)" fill="#a5ce46"/>
                  <path id="Path_207" data-name="Path 207" d="M810.926,633.609c9.474-16.709,14.586-29.409,19.863-42.516,1.719-4.265,3.494-8.677,5.428-13.218,6.362-14.936,29.029-32.415,38.2-37.829l16.305,17.441,16.765,17.932c-6,8.774-23.868,31.341-39.25,36.7-4.661,1.623-9.18,3.1-13.551,4.525C841.248,621.031,828.236,625.277,810.926,633.609Z" transform="translate(-769.345 -530.256)" fill="#288e99"/>
                </g>
                <path id="Path_208" data-name="Path 208" d="M971.143,455.181,932.924,464.6l-51.047,12.576S844.12,494.629,825.694,529.7c-18.136,34.518-12.826,55.084-12.658,55.718l.006.016s36.578-34.649,71.116-43.192a54.13,54.13,0,0,1,20.345-1.485s46.526-43.709,66.656-85.578Z" transform="translate(-768.088 -370.156)" fill="#288e99"/>
                <path id="Path_209" data-name="Path 209" d="M868.54,540.753a54.13,54.13,0,0,0-20.345,1.485c10.057-30.162,30.42-57.483,48.766-77.641l38.219-9.416.016-.006C915.065,497.044,868.54,540.753,868.54,540.753Z" transform="translate(-732.125 -370.156)" opacity="0.2"/>
                <path id="Path_210" data-name="Path 210" d="M928.124,575.844a54.1,54.1,0,0,1-2.85,20.2c-10.845,33.886-47.875,68.05-47.875,68.05l.014.008c.622.21,20.785,6.891,56.443-8.882,36.226-16.028,56.183-52.526,56.183-52.526l15.977-50.083,11.966-37.5.008-.014C974.861,532.363,928.124,575.844,928.124,575.844Z" transform="translate(-702.959 -310.315)" fill="#288e99"/>
                <path id="Path_211" data-name="Path 211" d="M904.2,575.844a54.1,54.1,0,0,1-2.85,20.2c30.772-8.007,59.4-26.487,80.743-43.434l11.966-37.5.008-.014C950.94,532.363,904.2,575.844,904.2,575.844Z" transform="translate(-679.037 -310.315)" opacity="0.2"/>
                <path id="Path_212" data-name="Path 212" d="M1052.553,620.587c-11.85,11.081-21.494,19.707-31.654,27.354a231.105,231.105,0,0,1-34.711,21.394c-.444.232-.893.448-1.349.64L961.782,679.9l-25.473,10.965-48.467,20.868-49.006-52.42,2.736-5.33,21.344-41.623,12.654-24.678A312.3,312.3,0,0,1,938.627,503.2c.734-.694,1.479-1.4,2.227-2.095,35.675-33.352,70.881-54.273,102.107-67.338q3.337-1.394,6.609-2.674,7.859-3.064,15.324-5.492,3.22-1.055,6.346-2c1.068-.322,2.121-.636,3.17-.935a262.4,262.4,0,0,1,36.364-7.819,217.01,217.01,0,0,1,30.144-2.213c8.138,0,13.9,6.164,13.353,14.285-.917,13.789-4.111,37.134-14.478,65.683q-.615,1.691-1.265,3.406-1.145,3.049-2.408,6.168-2.939,7.258-6.522,14.884-1.448,3.088-3.024,6.23C1111.442,553.554,1088.205,587.258,1052.553,620.587Z" transform="translate(-741.471 -412.638)" fill="#e8e8e8"/>
                <path id="Path_213" data-name="Path 213" d="M1008.976,577.623c68.132-65.875,86.678-122.128,86.963-123C1015.734,577.783,919.279,630.189,869.8,650.288q2.761,2.087,5.625,4.073C912.293,639.333,974.681,610.783,1008.976,577.623Z" transform="translate(-710.545 -370.712)" fill="#f4f6f7"/>
                <path id="Path_214" data-name="Path 214" d="M913.182,589.83l-25.34,10.913q-4.089-2.521-7.941-5.222-3.259-2.287-6.342-4.717a127.862,127.862,0,0,1-19.635-19.023,115.583,115.583,0,0,1-15.088-23.457l12.592-24.548a181.292,181.292,0,0,0,19.629,29.135,175.107,175.107,0,0,0,29.673,28.312q2.761,2.087,5.624,4.073C908.581,586.85,910.863,588.359,913.182,589.83Z" transform="translate(-741.472 -301.646)" fill="#288e99"/>
                <path id="Path_215" data-name="Path 215" d="M853.924,681.667a115.581,115.581,0,0,1-15.088-23.457l12.592-24.548,11.488-22.405,12.654-24.678A312.3,312.3,0,0,1,938.627,502.1c.734-.693,1.479-1.4,2.227-2.095,48.274-45.133,95.7-67.508,133.557-78.437a262.387,262.387,0,0,1,36.364-7.819c1.289,9.536,5.252,10.785-7.181,26.023,0,0-107.7,24.438-163.436,97.031-51.053,66.5-20.129,72.069-20.129,72.069L871.057,662.8Z" transform="translate(-741.472 -411.532)" opacity="0.2"/>
                <g id="Group_9-2" data-name="Group 9" transform="translate(93.059 141.845)">
                  <path id="Path_216" data-name="Path 216" d="M842.5,641.541a4.229,4.229,0,0,1-5.387-5.762c31.21-64.66,123.261-127.331,161.748-151.49a4.22,4.22,0,0,1,5.66,6.056C977.832,527.121,909.113,614.75,842.5,641.541Z" transform="translate(-836.682 -483.607)" fill="#a5ce46"/>
                  <path id="Path_217" data-name="Path 217" d="M1004.2,484.977,837.833,640.505a4.175,4.175,0,0,1-.719-4.727c31.21-64.66,123.261-127.331,161.748-151.49A4.121,4.121,0,0,1,1004.2,484.977Z" transform="translate(-836.682 -483.607)" opacity="0.2"/>
                </g>
                <g id="Group_11" data-name="Group 11" transform="translate(264.207 62.102)">
                  <g id="Group_10" data-name="Group 10" transform="translate(0)">
                    <path id="Path_218" data-name="Path 218" d="M989.909,513.216a40.166,40.166,0,1,1,1.911-56.771A40.165,40.165,0,0,1,989.909,513.216Z" transform="translate(-922.312 -443.709)" fill="#288e99"/>
                    <path id="Path_219" data-name="Path 219" d="M979.965,502.877c-.1.094-.206.192-.31.282a31.8,31.8,0,0,1-44.3-1.491c-.1-.1-.2-.2-.29-.3a31.779,31.779,0,1,1,44.9,1.511Z" transform="translate(-918.107 -439.505)" fill="#a5ce46"/>
                    <path id="Path_220" data-name="Path 220" d="M981.336,496.122a31.769,31.769,0,0,0-48.874-39.656q-.96.9-1.819,1.849a31.779,31.779,0,0,1,46.877,41.377,31.186,31.186,0,0,1-3.664,4.893c.576-.448,1.135-.929,1.683-1.425.1-.09.21-.188.31-.282A31.644,31.644,0,0,0,981.336,496.122Z" transform="translate(-913.991 -439.505)" opacity="0.1"/>
                  </g>
                  <path id="Path_221" data-name="Path 221" d="M977.006,460.336s-.675,18.128-14.109,25.384c-14.708,7.945-26.069-.226-33-13.713,0,0-.06,14.772,16.711,21.586C964.111,500.7,982.573,482.883,977.006,460.336Z" transform="translate(-914.738 -427.104)" fill="#288e99"/>
                </g>
                <g id="Group_12" data-name="Group 12" transform="translate(332.939)">
                  <path id="Path_222" data-name="Path 222" d="M1022.083,492.606A277.465,277.465,0,0,1,956.7,422.67c29.183-8.424,52.689-10.043,66.508-10.031a13.094,13.094,0,0,1,11.341,5.914,13.735,13.735,0,0,1,2.013,8.371C1035.644,440.712,1032.45,464.057,1022.083,492.606Z" transform="translate(-956.7 -412.638)" fill="#288e99"/>
                  <path id="Path_223" data-name="Path 223" d="M1000.944,436.9c.42-2.646.977-4.437,1.763-8.535,1.223-6.388.214-9.164-4.159-9.406-7.957-.44-18.624,31.546-10.531,44.3C994.31,473.179,999.117,448.4,1000.944,436.9Z" transform="translate(-928.309 -406.326)" fill="#a5ce46"/>
                  <path id="Path_224" data-name="Path 224" d="M1022.083,492.606A277.466,277.466,0,0,1,956.7,422.67c29.183-8.424,52.689-10.043,66.508-10.031a13.1,13.1,0,0,1,11.341,5.914c-2.786-.264-22.855-1.713-34.754,9.41C986.984,439.94,991.235,466.9,1022.083,492.606Z" transform="translate(-956.7 -412.638)" opacity="0.2"/>
                </g>
              </g>
            </svg>